<svg width="52" height="52" viewBox="0 0 52 52" fill="none" xmlns="http://www.w3.org/2000/svg">
<path d="M43.329 16.9888H31.1987V13.5229H43.329V16.9888ZM46.32 34.3178C45.5541 36.5654 42.804 39.5166 37.4805 39.5166C32.1535 39.5166 27.8386 36.5204 27.8386 29.6823C27.8386 22.9066 31.8676 19.4235 37.3106 19.4235C42.6515 19.4235 45.9128 22.5115 46.625 27.0933C46.7602 27.9702 46.8139 29.152 46.7896 30.8018H32.8796C33.1049 36.3661 38.9153 36.5412 40.8302 34.3178H46.32ZM33.0009 27.3862H41.6048C41.4228 24.7054 39.6362 23.5409 37.3124 23.5409C34.7719 23.5409 33.3665 24.8718 33.0009 27.3862ZM16.4101 39.4958H5.20508V13.5593H17.254C26.7434 13.6997 26.9236 22.9933 21.9675 25.5268C27.9651 27.7103 28.1661 39.4958 16.4101 39.4958V39.4958ZM10.4038 23.9204H16.6145C20.9607 23.9204 21.6504 18.7217 16.0739 18.7217H10.4038V23.9204V23.9204ZM16.2801 29.1191H10.4038V34.3456H16.1934C21.4875 34.3456 21.1634 29.1191 16.2801 29.1191V29.1191Z" fill="black"/>
</svg>
