<svg width="52" height="52" viewBox="0 0 52 52" fill="none" xmlns="http://www.w3.org/2000/svg">
<path fill-rule="evenodd" clip-rule="evenodd" d="M26.0002 5.20508C20.3522 5.20508 19.6452 5.22865 17.4271 5.32985C15.2131 5.43105 13.7006 5.78318 12.378 6.29751C10.9917 6.81878 9.73425 7.63672 8.6945 8.69588C7.63703 9.73444 6.81858 10.991 6.29613 12.378C5.78457 13.7006 5.43105 15.2145 5.32985 17.4284C5.23003 19.6452 5.20508 20.3508 5.20508 26.0002C5.20508 31.6495 5.22865 32.3552 5.32985 34.5733C5.43105 36.7873 5.78318 38.2998 6.29751 39.6224C6.81878 41.0087 7.63672 42.2661 8.69588 43.3059C9.73447 44.3633 10.991 45.1818 12.378 45.7042C13.7006 46.2172 15.2131 46.5693 17.4271 46.6705C19.6452 46.7717 20.3522 46.7953 26.0002 46.7953C31.6481 46.7953 32.3552 46.7717 34.5733 46.6705C36.7873 46.5693 38.2998 46.2172 39.6224 45.7029C41.0087 45.1816 42.2661 44.3637 43.3059 43.3045C44.3633 42.2659 45.1818 41.0094 45.7042 39.6224C46.2172 38.2998 46.5693 36.7873 46.6705 34.5733C46.7717 32.3552 46.7953 31.6481 46.7953 26.0002C46.7953 20.3522 46.7717 19.6452 46.6705 17.4271C46.5693 15.2131 46.2172 13.7006 45.7029 12.378C45.1808 10.9904 44.3623 9.73331 43.3045 8.6945C42.2659 7.63703 41.0094 6.81858 39.6224 6.29613C38.2998 5.78457 36.7859 5.43105 34.5719 5.32985C32.3552 5.23003 31.6495 5.20508 26.0002 5.20508ZM26.0002 8.95236C31.5525 8.95236 32.211 8.97315 34.4042 9.07297C36.431 9.16585 37.5318 9.50273 38.2651 9.78971C39.2356 10.1654 39.9287 10.6174 40.6566 11.3438C41.3844 12.0716 41.835 12.7648 42.2107 13.7352C42.4963 14.4686 42.8345 15.5694 42.9274 17.5962C43.0272 19.7894 43.048 20.4479 43.048 26.0002C43.048 31.5525 43.0272 32.211 42.9274 34.4042C42.8345 36.431 42.4976 37.5318 42.2107 38.2651C41.8778 39.1684 41.3468 39.9856 40.6566 40.6566C39.9857 41.3469 39.1685 41.878 38.2651 42.2107C37.5318 42.4963 36.431 42.8345 34.4042 42.9274C32.211 43.0272 31.5539 43.048 26.0002 43.048C20.4465 43.048 19.7894 43.0272 17.5962 42.9274C15.5694 42.8345 14.4686 42.4976 13.7352 42.2107C12.832 41.8778 12.0148 41.3468 11.3438 40.6566C10.6536 39.9855 10.1226 39.1684 9.78971 38.2651C9.50412 37.5318 9.16585 36.431 9.07297 34.4042C8.97315 32.211 8.95236 31.5525 8.95236 26.0002C8.95236 20.4479 8.97315 19.7894 9.07297 17.5962C9.16585 15.5694 9.50273 14.4686 9.78971 13.7352C10.1654 12.7648 10.6174 12.0716 11.3438 11.3438C12.0147 10.6535 12.8319 10.1224 13.7352 9.78971C14.4686 9.50412 15.5694 9.16585 17.5962 9.07297C19.7894 8.97315 20.4479 8.95236 26.0002 8.95236Z" fill="black"/>
<path fill-rule="evenodd" clip-rule="evenodd" d="M26.0002 32.9388C25.089 32.9388 24.1868 32.7593 23.3449 32.4106C22.5031 32.0619 21.7382 31.5509 21.0939 30.9065C20.4496 30.2622 19.9385 29.4973 19.5898 28.6555C19.2411 27.8137 19.0616 26.9114 19.0616 26.0002C19.0616 25.089 19.2411 24.1867 19.5898 23.3449C19.9385 22.503 20.4496 21.7381 21.0939 21.0938C21.7382 20.4495 22.5031 19.9384 23.3449 19.5897C24.1868 19.241 25.089 19.0616 26.0002 19.0616C27.8405 19.0616 29.6053 19.7926 30.9066 21.0938C32.2078 22.3951 32.9389 24.1599 32.9389 26.0002C32.9389 27.8404 32.2078 29.6053 30.9066 30.9065C29.6053 32.2078 27.8405 32.9388 26.0002 32.9388ZM26.0002 15.3115C23.1654 15.3115 20.4467 16.4376 18.4422 18.4421C16.4377 20.4467 15.3115 23.1654 15.3115 26.0002C15.3115 28.835 16.4377 31.5537 18.4422 33.5582C20.4467 35.5627 23.1654 36.6889 26.0002 36.6889C28.835 36.6889 31.5537 35.5627 33.5583 33.5582C35.5628 31.5537 36.6889 28.835 36.6889 26.0002C36.6889 23.1654 35.5628 20.4467 33.5583 18.4421C31.5537 16.4376 28.835 15.3115 26.0002 15.3115ZM39.7985 15.1174C39.7985 15.7875 39.5323 16.4302 39.0584 16.904C38.5846 17.3778 37.942 17.644 37.2719 17.644C36.6018 17.644 35.9591 17.3778 35.4853 16.904C35.0115 16.4302 34.7453 15.7875 34.7453 15.1174C34.7453 14.4473 35.0115 13.8047 35.4853 13.3308C35.9591 12.857 36.6018 12.5908 37.2719 12.5908C37.942 12.5908 38.5846 12.857 39.0584 13.3308C39.5323 13.8047 39.7985 14.4473 39.7985 15.1174Z" fill="black"/>
</svg>
