<svg width="20" height="20" viewBox="0 0 20 20" fill="none" xmlns="http://www.w3.org/2000/svg">
<g clip-path="url(#clip0_4730_567)">
<path fill-rule="evenodd" clip-rule="evenodd" d="M10 6.25C7.92893 6.25 6.25 7.92893 6.25 10C6.25 12.0711 7.92893 13.75 10 13.75C12.0711 13.75 13.75 12.0711 13.75 10C13.7478 7.92982 12.0702 6.25215 10 6.25V6.25ZM10 12.5C8.61929 12.5 7.5 11.3807 7.5 10C7.5 8.61929 8.61929 7.5 10 7.5C11.3807 7.5 12.5 8.61929 12.5 10C12.5 11.3807 11.3807 12.5 10 12.5V12.5ZM13.75 1.875H6.25C3.83483 1.87758 1.87758 3.83483 1.875 6.25V13.75C1.87758 16.1652 3.83483 18.1224 6.25 18.125H13.75C16.1652 18.1224 18.1224 16.1652 18.125 13.75V6.25C18.1224 3.83483 16.1652 1.87758 13.75 1.875V1.875ZM16.875 13.75C16.875 15.4759 15.4759 16.875 13.75 16.875H6.25C4.52411 16.875 3.125 15.4759 3.125 13.75V6.25C3.125 4.52411 4.52411 3.125 6.25 3.125H13.75C15.4759 3.125 16.875 4.52411 16.875 6.25V13.75ZM15 5.9375C15 6.45527 14.5803 6.875 14.0625 6.875C13.5447 6.875 13.125 6.45527 13.125 5.9375C13.125 5.41973 13.5447 5 14.0625 5C14.5803 5 15 5.41973 15 5.9375V5.9375Z" fill="#121217"/>
</g>
<defs>
<clipPath id="clip0_4730_567">
<rect width="20" height="20" fill="white"/>
</clipPath>
</defs>
</svg>
