<svg width="52" height="52" viewBox="0 0 52 52" fill="none" xmlns="http://www.w3.org/2000/svg">
<path d="M46.7953 8.26318V43.7372C46.7953 44.5482 46.4731 45.3261 45.8996 45.8996C45.3261 46.4731 44.5482 46.7953 43.7372 46.7953H8.26318C7.45212 46.7953 6.67428 46.4731 6.10078 45.8996C5.52727 45.3261 5.20508 44.5482 5.20508 43.7372V8.26318C5.20508 7.45212 5.52727 6.67428 6.10078 6.10078C6.67428 5.52727 7.45212 5.20508 8.26318 5.20508H43.7372C44.5482 5.20508 45.3261 5.52727 45.8996 6.10078C46.4731 6.67428 46.7953 7.45212 46.7953 8.26318V8.26318ZM17.4375 21.1072H11.3213V40.6791H17.4375V21.1072ZM17.988 14.3794C17.9912 13.9167 17.9032 13.458 17.7292 13.0293C17.5551 12.6007 17.2983 12.2105 16.9734 11.8811C16.6486 11.5517 16.262 11.2895 15.8358 11.1095C15.4096 10.9295 14.9521 10.8352 14.4895 10.832H14.3794C13.4386 10.832 12.5363 11.2057 11.871 11.871C11.2057 12.5363 10.832 13.4386 10.832 14.3794C10.832 15.3202 11.2057 16.2225 11.871 16.8878C12.5363 17.553 13.4386 17.9268 14.3794 17.9268V17.9268C14.8421 17.9382 15.3024 17.8583 15.7342 17.6917C16.166 17.5251 16.5607 17.275 16.8959 16.9558C17.231 16.6366 17.4999 16.2545 17.6873 15.8313C17.8747 15.4081 17.9768 14.9522 17.988 14.4895V14.3794ZM40.6791 28.7892C40.6791 22.9054 36.936 20.6179 33.2173 20.6179C31.9997 20.557 30.7875 20.8163 29.7014 21.37C28.6154 21.9238 27.6935 22.7526 27.0277 23.7739H26.8565V21.1072H21.1072V40.6791H27.2234V30.2693C27.135 29.2032 27.4708 28.1452 28.158 27.3252C28.8451 26.5053 29.828 25.9895 30.8932 25.8901H31.1256C33.0705 25.8901 34.5139 27.1133 34.5139 30.1959V40.6791H40.6302L40.6791 28.7892Z" fill="black"/>
</svg>
