<svg width="52" height="52" viewBox="0 0 52 52" fill="none" xmlns="http://www.w3.org/2000/svg">
<g clip-path="url(#clip0_4947_4)">
<path d="M46.5902 8.0581V43.5321C46.5902 44.3431 46.268 45.121 45.6945 45.6945C45.121 46.268 44.3431 46.5902 43.5321 46.5902H8.0581C7.24704 46.5902 6.4692 46.268 5.8957 45.6945C5.32219 45.121 5 44.3431 5 43.5321V8.0581C5 7.24704 5.32219 6.4692 5.8957 5.8957C6.4692 5.32219 7.24704 5 8.0581 5H43.5321C44.3431 5 45.121 5.32219 45.6945 5.8957C46.268 6.4692 46.5902 7.24704 46.5902 8.0581ZM17.2324 20.9021H11.1162V40.474H17.2324V20.9021ZM17.7829 14.1743C17.7861 13.7116 17.6981 13.2529 17.5241 12.8242C17.35 12.3956 17.0932 12.0054 16.7683 11.676C16.4435 11.3466 16.0569 11.0844 15.6307 10.9044C15.2045 10.7244 14.747 10.6301 14.2844 10.6269H14.1743C13.2335 10.6269 12.3312 11.0006 11.6659 11.6659C11.0006 12.3312 10.6269 13.2335 10.6269 14.1743C10.6269 15.1151 11.0006 16.0174 11.6659 16.6827C12.3312 17.3479 13.2335 17.7217 14.1743 17.7217C14.637 17.7331 15.0973 17.6532 15.5291 17.4866C15.9609 17.32 16.3556 17.0699 16.6908 16.7507C17.0259 16.4315 17.2948 16.0494 17.4822 15.6262C17.6696 15.203 17.7717 14.7471 17.7829 14.2844V14.1743ZM40.474 28.5841C40.474 22.7003 36.7309 20.4128 33.0122 20.4128C31.7946 20.3519 30.5824 20.6112 29.4963 21.1649C28.4103 21.7187 27.4884 22.5475 26.8226 23.5688H26.6514V20.9021H20.9021V40.474H27.0183V30.0642C26.9299 28.9981 27.2657 27.9401 27.9529 27.1201C28.64 26.3002 29.6229 25.7844 30.6881 25.685H30.9205C32.8654 25.685 34.3088 26.9082 34.3088 29.9908V40.474H40.4251L40.474 28.5841Z" fill="black"/>
</g>
<defs>
<clipPath id="clip0_4947_4">
<rect x="5" y="5" width="42" height="42" rx="3" fill="white"/>
</clipPath>
</defs>
</svg>
