<svg width="52" height="52" viewBox="0 0 52 52" fill="none" xmlns="http://www.w3.org/2000/svg">
<g clip-path="url(#clip0_4947_2)">
<path d="M-3 -3V56H56V-3H-3ZM26.5 41.1693C25.048 41.1693 23.6422 40.9504 22.317 40.5586C22.8816 39.6713 23.4924 38.5305 23.8035 37.4012C23.9879 36.7443 24.8406 33.3449 24.8406 33.3449C25.3477 34.3244 26.8457 35.1771 28.4475 35.1771C33.1951 35.1771 36.4102 30.8559 36.4102 25.0711C36.4102 20.6922 32.6996 16.6244 27.0762 16.6244C20.0699 16.6244 16.5322 21.6486 16.5322 25.8432C16.5322 28.3783 17.4887 30.6369 19.5514 31.4781C19.8855 31.6164 20.1852 31.4781 20.2889 31.1094C20.358 30.8559 20.5193 30.199 20.5885 29.9225C20.6922 29.5537 20.6461 29.427 20.3811 29.1043C19.7934 28.4014 19.4131 27.5025 19.4131 26.2119C19.4131 22.4898 22.2018 19.148 26.6729 19.148C30.6369 19.148 32.8148 21.568 32.8148 24.7945C32.8148 29.0467 30.9365 32.6305 28.1363 32.6305C26.5922 32.6305 25.4398 31.3514 25.8086 29.7957C26.2465 27.9289 27.1107 25.9123 27.1107 24.5641C27.1107 23.3541 26.4654 22.3516 25.1172 22.3516C23.5385 22.3516 22.2709 23.9879 22.2709 26.1658C22.2709 27.5602 22.7434 28.4936 22.7434 28.4936C22.7434 28.4936 21.1301 35.3385 20.842 36.5254C20.577 37.6432 20.5424 38.8877 20.5885 39.9133C15.3799 37.6547 11.75 32.4576 11.75 26.4193C11.75 18.2723 18.3529 11.6693 26.5 11.6693C34.6471 11.6693 41.25 18.2723 41.25 26.4193C41.25 34.5664 34.6471 41.1693 26.5 41.1693Z" fill="black"/>
</g>
<defs>
<clipPath id="clip0_4947_2">
<rect x="5" y="5" width="42" height="42" rx="3" fill="white"/>
</clipPath>
</defs>
</svg>
